<svg height="1262" width="720" xmlns="http://www.w3.org/2000/svg">
<rect height="1262" fill="#555" width="720"></rect>
<text fill="#7f7" font-family="Courier New" font-size="12" xml:space="preserve">
<tspan x="10" y="26">6 megabytes installed</tspan>
<tspan x="10" y="42"></tspan>
<tspan x="10" y="58">node_modules</tspan>
<tspan x="10" y="74">└─┬ gulp-svg-spritesheet@0.0.4 </tspan>
<tspan x="10" y="90">  ├─┬ cheerio@0.17.0 </tspan>
<tspan x="10" y="106">  │ ├─┬ CSSselect@0.4.1 </tspan>
<tspan x="10" y="122">  │ │ ├── CSSwhat@0.4.7 </tspan>
<tspan x="10" y="138">  │ │ └── domutils@1.4.3 </tspan>
<tspan x="10" y="154">  │ ├─┬ dom-serializer@0.0.1 </tspan>
<tspan x="10" y="170">  │ │ └── domelementtype@1.1.3 </tspan>
<tspan x="10" y="186">  │ ├── entities@1.1.1 </tspan>
<tspan x="10" y="202">  │ ├─┬ htmlparser2@3.7.3 </tspan>
<tspan x="10" y="218">  │ │ ├── domelementtype@1.3.0 </tspan>
<tspan x="10" y="234">  │ │ ├── domhandler@2.2.1 </tspan>
<tspan x="10" y="250">  │ │ ├── domutils@1.5.1 </tspan>
<tspan x="10" y="266">  │ │ ├── entities@1.0.0 </tspan>
<tspan x="10" y="282">  │ │ └── readable-stream@1.1.14 </tspan>
<tspan x="10" y="298">  │ └── lodash@2.4.2 </tspan>
<tspan x="10" y="314">  ├─┬ gulp-util@3.0.8 </tspan>
<tspan x="10" y="330">  │ ├── array-differ@1.0.0 </tspan>
<tspan x="10" y="346">  │ ├── array-uniq@1.0.3 </tspan>
<tspan x="10" y="362">  │ ├── beeper@1.1.1 </tspan>
<tspan x="10" y="378">  │ ├─┬ chalk@1.1.3 </tspan>
<tspan x="10" y="394">  │ │ ├── ansi-styles@2.2.1 </tspan>
<tspan x="10" y="410">  │ │ ├── escape-string-regexp@1.0.5 </tspan>
<tspan x="10" y="426">  │ │ ├─┬ has-ansi@2.0.0 </tspan>
<tspan x="10" y="442">  │ │ │ └── ansi-regex@2.1.1 </tspan>
<tspan x="10" y="458">  │ │ ├── strip-ansi@3.0.1 </tspan>
<tspan x="10" y="474">  │ │ └── supports-color@2.0.0 </tspan>
<tspan x="10" y="490">  │ ├── dateformat@2.0.0 </tspan>
<tspan x="10" y="506">  │ ├─┬ fancy-log@1.3.0 </tspan>
<tspan x="10" y="522">  │ │ └── time-stamp@1.0.1 </tspan>
<tspan x="10" y="538">  │ ├─┬ gulplog@1.0.0 </tspan>
<tspan x="10" y="554">  │ │ └── glogg@1.0.0 </tspan>
<tspan x="10" y="570">  │ ├─┬ has-gulplog@0.1.0 </tspan>
<tspan x="10" y="586">  │ │ └── sparkles@1.0.0 </tspan>
<tspan x="10" y="602">  │ ├── lodash._reescape@3.0.0 </tspan>
<tspan x="10" y="618">  │ ├── lodash._reevaluate@3.0.0 </tspan>
<tspan x="10" y="634">  │ ├── lodash._reinterpolate@3.0.0 </tspan>
<tspan x="10" y="650">  │ ├─┬ lodash.template@3.6.2 </tspan>
<tspan x="10" y="666">  │ │ ├── lodash._basecopy@3.0.1 </tspan>
<tspan x="10" y="682">  │ │ ├── lodash._basetostring@3.0.1 </tspan>
<tspan x="10" y="698">  │ │ ├── lodash._basevalues@3.0.0 </tspan>
<tspan x="10" y="714">  │ │ ├── lodash._isiterateecall@3.0.9 </tspan>
<tspan x="10" y="730">  │ │ ├─┬ lodash.escape@3.2.0 </tspan>
<tspan x="10" y="746">  │ │ │ └── lodash._root@3.0.1 </tspan>
<tspan x="10" y="762">  │ │ ├─┬ lodash.keys@3.1.2 </tspan>
<tspan x="10" y="778">  │ │ │ ├── lodash._getnative@3.9.1 </tspan>
<tspan x="10" y="794">  │ │ │ ├── lodash.isarguments@3.1.0 </tspan>
<tspan x="10" y="810">  │ │ │ └── lodash.isarray@3.0.4 </tspan>
<tspan x="10" y="826">  │ │ ├── lodash.restparam@3.6.1 </tspan>
<tspan x="10" y="842">  │ │ └── lodash.templatesettings@3.1.1 </tspan>
<tspan x="10" y="858">  │ ├── minimist@1.2.0 </tspan>
<tspan x="10" y="874">  │ ├─┬ multipipe@0.1.2 </tspan>
<tspan x="10" y="890">  │ │ └── duplexer2@0.0.2 </tspan>
<tspan x="10" y="906">  │ ├── object-assign@3.0.0 </tspan>
<tspan x="10" y="922">  │ ├── replace-ext@0.0.1 </tspan>
<tspan x="10" y="938">  │ ├─┬ through2@2.0.3 </tspan>
<tspan x="10" y="954">  │ │ └─┬ readable-stream@2.2.9 </tspan>
<tspan x="10" y="970">  │ │   ├── buffer-shims@1.0.0 </tspan>
<tspan x="10" y="986">  │ │   ├── isarray@1.0.0 </tspan>
<tspan x="10" y="1002">  │ │   ├── process-nextick-args@1.0.7 </tspan>
<tspan x="10" y="1018">  │ │   ├── string_decoder@1.0.0 </tspan>
<tspan x="10" y="1034">  │ │   └── util-deprecate@1.0.2 </tspan>
<tspan x="10" y="1050">  │ └─┬ vinyl@0.5.3 </tspan>
<tspan x="10" y="1066">  │   ├── clone@1.0.2 </tspan>
<tspan x="10" y="1082">  │   └── clone-stats@0.0.1 </tspan>
<tspan x="10" y="1098">  ├─┬ mkdirp@0.5.1 </tspan>
<tspan x="10" y="1114">  │ └── minimist@0.0.8 </tspan>
<tspan x="10" y="1130">  ├── mustache@0.8.2 </tspan>
<tspan x="10" y="1146">  └─┬ through2@0.6.5 </tspan>
<tspan x="10" y="1162">    ├─┬ readable-stream@1.0.34 </tspan>
<tspan x="10" y="1178">    │ ├── core-util-is@1.0.2 </tspan>
<tspan x="10" y="1194">    │ ├── inherits@2.0.3 </tspan>
<tspan x="10" y="1210">    │ ├── isarray@0.0.1 </tspan>
<tspan x="10" y="1226">    │ └── string_decoder@0.10.31 </tspan>
<tspan x="10" y="1242">    └── xtend@4.0.1</tspan>
</text>
</svg>
